<?xml version="1.0" encoding="UTF-8" standalone="no"?>
<!-- Generator: Adobe Illustrator 16.0.3, SVG Export Plug-In . SVG Version: 6.00 Build 0)  -->

<svg
   xmlns:dc="http://purl.org/dc/elements/1.1/"
   xmlns:cc="http://creativecommons.org/ns#"
   xmlns:rdf="http://www.w3.org/1999/02/22-rdf-syntax-ns#"
   xmlns:svg="http://www.w3.org/2000/svg"
   xmlns="http://www.w3.org/2000/svg"
   xmlns:xlink="http://www.w3.org/1999/xlink"
   xmlns:sodipodi="http://sodipodi.sourceforge.net/DTD/sodipodi-0.dtd"
   xmlns:inkscape="http://www.inkscape.org/namespaces/inkscape"
   version="1.1"
   id="Warstwa_1"
   x="0px"
   y="0px"
   width="221.175"
   height="161.515"
   viewBox="0 0 221.175 161.51499"
   enable-background="new 0 0 841.89 595.28"
   xml:space="preserve"
   sodipodi:docname="logo_klastER.svg"
   inkscape:version="0.92.3 (2405546, 2018-03-11)"><metadata
   id="metadata63"><rdf:RDF><cc:Work
       rdf:about=""><dc:format>image/svg+xml</dc:format><dc:type
         rdf:resource="http://purl.org/dc/dcmitype/StillImage" /><dc:title></dc:title></cc:Work></rdf:RDF></metadata><defs
   id="defs61" /><sodipodi:namedview
   pagecolor="#ffffff"
   bordercolor="#666666"
   borderopacity="1"
   objecttolerance="10"
   gridtolerance="10"
   guidetolerance="10"
   inkscape:pageopacity="0"
   inkscape:pageshadow="2"
   inkscape:window-width="1920"
   inkscape:window-height="1137"
   id="namedview59"
   showgrid="false"
   inkscape:zoom="1.1213358"
   inkscape:cx="101.82231"
   inkscape:cy="78.882745"
   inkscape:window-x="-8"
   inkscape:window-y="-8"
   inkscape:window-maximized="1"
   inkscape:current-layer="Warstwa_1" />
<polygon
   points="532.175,216.766 441.041,292.46 426.866,351.774 "
   id="polygon2"
   style="fill:#27348b"
   transform="translate(-311,-216.766)" />
<polygon
   points="342.753,269.445 363.971,260.623 357.341,257.692 338.779,265.411 "
   id="polygon4"
   style="fill:#95c11f"
   transform="translate(-311,-216.766)" />
<polygon
   points="336.525,248.491 331.794,246.4 323.465,249.864 326.3,252.743 "
   id="polygon6"
   style="fill:#95c11f"
   transform="translate(-311,-216.766)" />
<polygon
   points="328.165,254.636 331.358,257.876 344.961,252.221 339.634,249.865 "
   id="polygon8"
   style="fill:#95c11f"
   transform="translate(-311,-216.766)" />
<polygon
   points="349.671,276.47 375.514,265.725 367.461,262.166 344.846,271.569 "
   id="polygon10"
   style="fill:#95c11f"
   transform="translate(-311,-216.766)" />
<polygon
   points="333.223,259.769 336.915,263.519 354.231,256.318 348.072,253.595 "
   id="polygon12"
   style="fill:#95c11f"
   transform="translate(-311,-216.766)" />
<polygon
   points="311,237.209 317.639,243.949 322.075,242.104 "
   id="polygon14"
   style="fill:#95c11f"
   transform="translate(-311,-216.766)" />
<polygon
   points="329.002,245.166 324.868,243.338 319.313,245.648 321.792,248.165 "
   id="polygon16"
   style="fill:#95c11f"
   transform="translate(-311,-216.766)" />
<polygon
   points="351.764,278.594 358.045,284.972 389.482,271.899 379.003,267.268 "
   id="polygon18"
   style="fill:#95c11f"
   transform="translate(-311,-216.766)" />
<polygon
   points="436.305,295.231 387.956,315.336 422.979,350.894 "
   id="polygon20"
   style="fill:#29235c"
   transform="translate(-311,-216.766)" />
<polygon
   points="371.173,298.298 385.235,312.574 434.84,291.948 411.381,281.579 "
   id="polygon22"
   style="fill:#95c11f"
   transform="translate(-311,-216.766)" />
<polygon
   points="360.347,287.308 368.662,295.749 407.192,279.728 393.322,273.597 "
   id="polygon24"
   style="fill:#95c11f"
   transform="translate(-311,-216.766)" />
<rect
   x="18.078003"
   y="140.131"
   width="2.552"
   height="20.985001"
   id="rect26"
   style="fill:#29235c" />
<polygon
   points="340.904,377.884 344.562,377.884 335.062,367.163 344.167,356.885 341.02,356.885 331.915,367.391 "
   id="polygon28"
   style="fill:#29235c"
   transform="translate(-311,-216.766)" />
<rect
   x="36.114014"
   y="140.118"
   width="2.4960001"
   height="20.999001"
   id="rect30"
   style="fill:#29235c" />
<g
   id="g44"
   transform="translate(-311,-216.766)">
	<defs
   id="defs33">
		<rect
   id="SVGID_1_"
   x="311"
   y="216.76601"
   width="221.175"
   height="161.515" />
	</defs>
	<clipPath
   id="SVGID_2_">
		<use
   xlink:href="#SVGID_1_"
   overflow="visible"
   id="use35"
   style="overflow:visible"
   x="0"
   y="0"
   width="100%"
   height="100%" />
	</clipPath>
	<path
   clip-path="url(#SVGID_2_)"
   d="m 362.343,375.217 c -1.305,0.767 -2.382,1.078 -3.488,1.078 -1.815,0 -2.836,-0.879 -2.836,-2.808 0,-1.701 1.361,-2.439 3.459,-2.439 1.22,0 2.071,0.058 2.865,0.199 z m 2.864,2.666 c -0.312,-1.53 -0.369,-2.324 -0.369,-3.829 v -4.621 c 0,-0.993 0,-1.702 -0.028,-2.354 -0.142,-2.751 -2.127,-4.339 -5.388,-4.339 -1.645,0 -3.262,0.396 -4.878,1.276 l 0.709,1.645 c 1.248,-0.652 2.581,-0.936 3.63,-0.936 2.524,0 3.46,1.248 3.46,3.177 v 1.559 c -0.794,-0.198 -1.787,-0.34 -2.723,-0.34 -3.573,0 -6.154,1.531 -6.154,4.594 0,3.488 1.985,4.566 4.424,4.566 1.475,0 2.78,-0.397 4.509,-1.588 l 0.369,1.503 z"
   id="path38"
   inkscape:connector-curvature="0"
   style="fill:#29235c" />
	<path
   clip-path="url(#SVGID_2_)"
   d="m 373.29,378.28 c 3.006,0 5.445,-1.475 5.445,-4.367 0,-2.523 -1.673,-3.574 -4.169,-4.65 -1.843,-0.794 -2.864,-1.418 -2.864,-2.694 0,-1.22 0.822,-1.844 2.354,-1.844 1.531,0 2.637,0.369 3.601,1.021 l 0.823,-1.758 c -1.135,-0.823 -2.468,-1.248 -4.282,-1.248 -3.177,0 -5.02,1.617 -5.02,4.055 0,2.298 1.645,3.375 3.8,4.283 2.552,1.049 3.205,1.646 3.205,3.063 0,1.304 -0.936,2.154 -2.723,2.154 -1.616,0 -2.949,-0.511 -4.112,-1.333 l -1.049,1.646 c 1.247,1.133 2.864,1.672 4.991,1.672"
   id="path40"
   inkscape:connector-curvature="0"
   style="fill:#29235c" />
	<path
   clip-path="url(#SVGID_2_)"
   d="m 390.021,375.898 c -0.709,0.255 -1.219,0.34 -1.702,0.34 -1.729,0 -2.212,-0.709 -2.212,-3.148 v -8.082 h 3.999 l 0.255,-1.872 h -4.254 v -3.686 l -2.495,0.396 v 3.289 h -2.127 v 1.872 h 2.127 v 7.941 c 0,0.794 0,1.559 0.057,2.325 0.141,1.701 1.191,3.006 3.544,3.006 1.333,0 2.354,-0.313 3.262,-0.767 z"
   id="path42"
   inkscape:connector-curvature="0"
   style="fill:#29235c" />
</g>
<polygon
   points="407.377,377.883 407.944,374.026 398.387,374.026 398.387,369.12 406.016,369.12 406.583,365.263 398.387,365.263 398.387,360.754 407.178,360.754 407.745,356.897 393.169,356.897 393.169,377.883 "
   id="polygon46"
   style="fill:#29235c"
   transform="translate(-311,-216.766)" />
<g
   id="g56"
   transform="translate(-311,-216.766)">
	<defs
   id="defs49">
		<rect
   id="SVGID_3_"
   x="311"
   y="216.76601"
   width="221.175"
   height="161.515" />
	</defs>
	<clipPath
   id="SVGID_4_">
		<use
   xlink:href="#SVGID_3_"
   overflow="visible"
   id="use51"
   style="overflow:visible"
   x="0"
   y="0"
   width="100%"
   height="100%" />
	</clipPath>
	<path
   clip-path="url(#SVGID_4_)"
   d="m 420.82,363.59 c 0,1.617 -0.823,2.893 -2.439,2.893 h -2.638 v -5.729 h 2.156 c 1.843,0 2.921,0.85 2.921,2.836 m 5.387,-0.113 c 0,-4.254 -2.92,-6.182 -5.841,-6.438 -1.475,-0.142 -2.467,-0.142 -4.055,-0.142 h -5.786 v 20.986 h 5.218 v -7.714 h 1.986 l 3.119,7.714 h 5.842 l -4.14,-8.82 c 2.212,-1.02 3.657,-3.035 3.657,-5.586"
   id="path54"
   inkscape:connector-curvature="0"
   style="fill:#29235c" />
</g>
</svg>